<svg id="mermaid-1779717070143" width="100%" xmlns="http://www.w3.org/2000/svg" xmlns:xlink="http://www.w3.org/1999/xlink" style="max-width: 1256.40625px;" viewBox="-8 -8 1256.40625 1187.1953125" role="graphics-document document" aria-roledescription="flowchart-v2"><style>#mermaid-1779717070143{font-family:Segoe UI,sans-serif;font-size:16px;fill:#ffffff;}#mermaid-1779717070143 .error-icon{fill:#f7f9fc;}#mermaid-1779717070143 .error-text{fill:#080603;stroke:#080603;}#mermaid-1779717070143 .edge-thickness-normal{stroke-width:2px;}#mermaid-1779717070143 .edge-thickness-thick{stroke-width:3.5px;}#mermaid-1779717070143 .edge-pattern-solid{stroke-dasharray:0;}#mermaid-1779717070143 .edge-pattern-dashed{stroke-dasharray:3;}#mermaid-1779717070143 .edge-pattern-dotted{stroke-dasharray:2;}#mermaid-1779717070143 .marker{fill:#4a5460;stroke:#4a5460;}#mermaid-1779717070143 .marker.cross{stroke:#4a5460;}#mermaid-1779717070143 svg{font-family:Segoe UI,sans-serif;font-size:16px;}#mermaid-1779717070143 .label{font-family:Segoe UI,sans-serif;color:#ffffff;}#mermaid-1779717070143 .cluster-label text{fill:#080603;}#mermaid-1779717070143 .cluster-label span,#mermaid-1779717070143 p{color:#080603;}#mermaid-1779717070143 .label text,#mermaid-1779717070143 span,#mermaid-1779717070143 p{fill:#ffffff;color:#ffffff;}#mermaid-1779717070143 .node rect,#mermaid-1779717070143 .node circle,#mermaid-1779717070143 .node ellipse,#mermaid-1779717070143 .node polygon,#mermaid-1779717070143 .node path{fill:#0078d4;stroke:#005a9e;stroke-width:1px;}#mermaid-1779717070143 .flowchart-label text{text-anchor:middle;}#mermaid-1779717070143 .node .katex path{fill:#000;stroke:#000;stroke-width:1px;}#mermaid-1779717070143 .node .label{text-align:center;}#mermaid-1779717070143 .node.clickable{cursor:pointer;}#mermaid-1779717070143 .arrowheadPath{fill:#0b0b0b;}#mermaid-1779717070143 .edgePath .path{stroke:#4a5460;stroke-width:2.0px;}#mermaid-1779717070143 .flowchart-link{stroke:#4a5460;fill:none;}#mermaid-1779717070143 .edgeLabel{background-color:#eef5fc;text-align:center;}#mermaid-1779717070143 .edgeLabel rect{opacity:0.5;background-color:#eef5fc;fill:#eef5fc;}#mermaid-1779717070143 .labelBkg{background-color:rgba(238, 245, 252, 0.5);}#mermaid-1779717070143 .cluster rect{fill:#f7f9fc;stroke:hsl(216, 5.4545454545%, 87.8431372549%);stroke-width:1px;}#mermaid-1779717070143 .cluster text{fill:#080603;}#mermaid-1779717070143 .cluster span,#mermaid-1779717070143 p{color:#080603;}#mermaid-1779717070143 div.mermaidTooltip{position:absolute;text-align:center;max-width:200px;padding:2px;font-family:Segoe UI,sans-serif;font-size:12px;background:#f7f9fc;border:1px solid hsl(216, 5.4545454545%, 87.8431372549%);border-radius:2px;pointer-events:none;z-index:100;}#mermaid-1779717070143 .flowchartTitleText{text-anchor:middle;font-size:18px;fill:#ffffff;}#mermaid-1779717070143 :root{--mermaid-font-family:"trebuchet ms",verdana,arial,sans-serif;}#mermaid-1779717070143 .id&gt;*{fill:rgb(8, 145, 178)!important;stroke:rgb(14, 116, 144)!important;color:rgb(255, 255, 255)!important;}#mermaid-1779717070143 .id span{fill:rgb(8, 145, 178)!important;stroke:rgb(14, 116, 144)!important;color:rgb(255, 255, 255)!important;}#mermaid-1779717070143 .id tspan{fill:rgb(255, 255, 255)!important;}#mermaid-1779717070143 .mi&gt;*{fill:rgb(139, 92, 246)!important;stroke:rgb(109, 40, 217)!important;color:rgb(255, 255, 255)!important;}#mermaid-1779717070143 .mi span{fill:rgb(139, 92, 246)!important;stroke:rgb(109, 40, 217)!important;color:rgb(255, 255, 255)!important;}#mermaid-1779717070143 .mi tspan{fill:rgb(255, 255, 255)!important;}#mermaid-1779717070143 .res&gt;*{fill:rgb(15, 118, 110)!important;stroke:rgb(13, 92, 85)!important;color:rgb(255, 255, 255)!important;}#mermaid-1779717070143 .res span{fill:rgb(15, 118, 110)!important;stroke:rgb(13, 92, 85)!important;color:rgb(255, 255, 255)!important;}#mermaid-1779717070143 .res tspan{fill:rgb(255, 255, 255)!important;}</style><g><marker id="mermaid-1779717070143_flowchart-pointEnd" class="marker flowchart" viewBox="0 0 10 10" refX="6" refY="5" markerUnits="userSpaceOnUse" markerWidth="12" markerHeight="12" orient="auto"><path d="M 0 0 L 10 5 L 0 10 z" class="arrowMarkerPath" style="stroke-width: 1; stroke-dasharray: 1, 0;"></path></marker><marker id="mermaid-1779717070143_flowchart-pointStart" class="marker flowchart" viewBox="0 0 10 10" refX="4.5" refY="5" markerUnits="userSpaceOnUse" markerWidth="12" markerHeight="12" orient="auto"><path d="M 0 5 L 10 10 L 10 0 z" class="arrowMarkerPath" style="stroke-width: 1; stroke-dasharray: 1, 0;"></path></marker><marker id="mermaid-1779717070143_flowchart-circleEnd" class="marker flowchart" viewBox="0 0 10 10" refX="11" refY="5" markerUnits="userSpaceOnUse" markerWidth="11" markerHeight="11" orient="auto"><circle cx="5" cy="5" r="5" class="arrowMarkerPath" style="stroke-width: 1; stroke-dasharray: 1, 0;"></circle></marker><marker id="mermaid-1779717070143_flowchart-circleStart" class="marker flowchart" viewBox="0 0 10 10" refX="-1" refY="5" markerUnits="userSpaceOnUse" markerWidth="11" markerHeight="11" orient="auto"><circle cx="5" cy="5" r="5" class="arrowMarkerPath" style="stroke-width: 1; stroke-dasharray: 1, 0;"></circle></marker><marker id="mermaid-1779717070143_flowchart-crossEnd" class="marker cross flowchart" viewBox="0 0 11 11" refX="12" refY="5.2" markerUnits="userSpaceOnUse" markerWidth="11" markerHeight="11" orient="auto"><path d="M 1,1 l 9,9 M 10,1 l -9,9" class="arrowMarkerPath" style="stroke-width: 2; stroke-dasharray: 1, 0;"></path></marker><marker id="mermaid-1779717070143_flowchart-crossStart" class="marker cross flowchart" viewBox="0 0 11 11" refX="-1" refY="5.2" markerUnits="userSpaceOnUse" markerWidth="11" markerHeight="11" orient="auto"><path d="M 1,1 l 9,9 M 10,1 l -9,9" class="arrowMarkerPath" style="stroke-width: 2; stroke-dasharray: 1, 0;"></path></marker><g class="root"><g class="clusters"><g class="cluster default flowchart-label" id="RESOURCES"><rect style="" rx="0" ry="0" x="293.71875" y="0" width="280.234375" height="772.78125"></rect><g class="cluster-label" transform="translate(339.796875, 0)"><foreignObject width="188.078125" height="25.59375"><div xmlns="http://www.w3.org/1999/xhtml" style="display: inline-block; white-space: nowrap;"><span class="nodeLabel">Target Resources + RBAC</span></div></foreignObject></g></g><g class="cluster default flowchart-label" id="EDGE_AUTH"><rect style="" rx="0" ry="0" x="0" y="1009.4140625" width="1240.40625" height="161.78125"></rect><g class="cluster-label" transform="translate(573.96875, 1009.4140625)"><foreignObject width="92.46875" height="25.59375"><div xmlns="http://www.w3.org/1999/xhtml" style="display: inline-block; white-space: nowrap;"><span class="nodeLabel">EDGE AUTH</span></div></foreignObject></g></g><g class="cluster default flowchart-label" id="WORKLOAD"><rect style="" rx="0" ry="0" x="0" y="0" width="243.71875" height="779.984375"></rect><g class="cluster-label" transform="translate(36.515625, 0)"><foreignObject width="170.6875" height="25.59375"><div xmlns="http://www.w3.org/1999/xhtml" style="display: inline-block; white-space: nowrap;"><span class="nodeLabel">WORKLOAD IDENTITY</span></div></foreignObject></g></g><g class="cluster default flowchart-label" id="HUMAN"><rect style="" rx="0" ry="0" x="293.71875" y="792.78125" width="607.71875" height="196.6328125"></rect><g class="cluster-label" transform="translate(529.578125, 792.78125)"><foreignObject width="136" height="25.59375"><div xmlns="http://www.w3.org/1999/xhtml" style="display: inline-block; white-space: nowrap;"><span class="nodeLabel">HUMAN IDENTITY</span></div></foreignObject></g></g></g><g class="edgePaths"><path d="M775.628,941.617L753.072,970.406C730.515,999.195,685.402,1056.773,651.79,1085.563C618.177,1114.352,596.065,1114.352,561.656,1114.352C527.247,1114.352,480.542,1114.352,433.836,1114.352C387.13,1114.352,340.424,1114.352,312.905,1114.352C285.385,1114.352,277.052,1114.352,268.719,1114.352C260.385,1114.352,252.052,1114.352,244.585,1113.7C237.119,1113.049,230.519,1111.747,227.219,1111.096L223.918,1110.444" id="L-ADMIN_USER-SWA_AUTH-0" class="edge-thickness-normal edge-pattern-solid flowchart-link LS-ADMIN_USER LE-SWA_AUTH" style="fill:none;" marker-end="url(#mermaid-1779717070143_flowchart-pointEnd)"></path><path d="M218.719,1071.191L222.885,1070.369C227.052,1069.547,235.385,1067.902,243.719,1067.08C252.052,1066.258,260.385,1066.258,268.719,1066.258C277.052,1066.258,285.385,1066.258,306.373,1044.771C327.36,1023.284,361.002,980.311,377.823,958.824L394.644,937.337" id="L-SWA_AUTH-ENTRA_ID-0" class="edge-thickness-normal edge-pattern-solid flowchart-link LS-SWA_AUTH LE-ENTRA_ID" style="fill:none;" marker-end="url(#mermaid-1779717070143_flowchart-pointEnd)"></path><path d="M548.953,915.246L553.12,916.258C557.286,917.271,565.62,919.295,580.842,920.308C596.065,921.32,618.177,921.32,641.635,921.32C665.093,921.32,689.896,921.32,702.298,921.32L714.7,921.32" id="L-ENTRA_ID-ADMIN_USER-0" class="edge-thickness-normal edge-pattern-solid flowchart-link LS-ENTRA_ID LE-ADMIN_USER" style="fill:none;" marker-end="url(#mermaid-1779717070143_flowchart-pointEnd)"></path><path d="M863.063,921.32L869.458,921.32C875.854,921.32,888.646,921.32,906.32,953.492C923.995,985.664,946.552,1050.008,968.236,1080.586C989.92,1111.164,1010.731,1107.976,1021.137,1106.382L1031.542,1104.788" id="L-ADMIN_USER-APIM_JWT-0" class="edge-thickness-normal edge-pattern-solid flowchart-link LS-ADMIN_USER LE-APIM_JWT" style="fill:none;" marker-end="url(#mermaid-1779717070143_flowchart-pointEnd)"></path><path d="M1036.781,1072.984L1025.503,1070.796C1014.224,1068.609,991.667,1064.234,969.109,1027.608C946.552,990.982,923.995,922.104,894.398,887.665C864.802,853.227,828.167,853.227,784.642,853.227C741.117,853.227,690.703,853.227,654.44,853.227C618.177,853.227,596.065,853.227,580.842,854.239C565.62,855.251,557.286,857.276,553.12,858.289L548.953,859.301" id="L-APIM_JWT-ENTRA_ID-0" class="edge-thickness-normal edge-pattern-dotted flowchart-link LS-APIM_JWT LE-ENTRA_ID" style="fill:none;stroke-width:2px;stroke-dasharray:3;"></path><path d="M129.13,442.016L148.228,388.703C167.326,335.391,205.523,228.766,228.787,175.453C252.052,122.141,260.385,122.141,268.719,122.141C277.052,122.141,285.385,122.141,297.135,119.538C308.884,116.935,324.049,111.73,331.631,109.128L339.214,106.525" id="L-MI_API-R_KV-0" class="edge-thickness-normal edge-pattern-solid flowchart-link LS-MI_API LE-R_KV" style="fill:none;" marker-end="url(#mermaid-1779717070143_flowchart-pointEnd)"></path><path d="M132.902,442.016L151.371,408.068C169.841,374.12,206.78,306.224,229.416,272.276C252.052,238.328,260.385,238.328,268.719,238.328C277.052,238.328,285.385,238.328,296.293,236.014C307.201,233.7,320.684,229.073,327.425,226.759L334.167,224.445" id="L-MI_API-R_COSMOS-0" class="edge-thickness-normal edge-pattern-solid flowchart-link LS-MI_API LE-R_COSMOS" style="fill:none;" marker-end="url(#mermaid-1779717070143_flowchart-pointEnd)"></path><path d="M164.435,442.016L177.649,435.716C190.863,429.417,217.291,416.818,234.671,410.518C252.052,404.219,260.385,404.219,268.719,404.219C277.052,404.219,285.385,404.219,306.689,393.139C327.993,382.059,362.267,359.898,379.404,348.818L396.541,337.738" id="L-MI_API-R_ACR-0" class="edge-thickness-normal edge-pattern-solid flowchart-link LS-MI_API LE-R_ACR" style="fill:none;" marker-end="url(#mermaid-1779717070143_flowchart-pointEnd)"></path><path d="M169.82,466.248L182.137,467.259C194.453,468.27,219.086,470.291,235.569,471.302C252.052,472.313,260.385,472.313,268.719,472.313C277.052,472.313,285.385,472.313,299.283,472.313C313.181,472.313,332.644,472.313,342.375,472.313L352.106,472.313" id="L-MI_API-R_AIF-0" class="edge-thickness-normal edge-pattern-solid flowchart-link LS-MI_API LE-R_AIF" style="fill:none;" marker-end="url(#mermaid-1779717070143_flowchart-pointEnd)"></path><path d="M136.592,482.609L154.447,507.207C172.301,531.805,208.01,581,230.031,605.598C252.052,630.195,260.385,630.195,268.719,630.195C277.052,630.195,285.385,630.195,301.026,626.781C316.666,623.367,339.613,616.538,351.087,613.124L362.561,609.71" id="L-MI_API-R_REDIS-0" class="edge-thickness-normal edge-pattern-solid flowchart-link LS-MI_API LE-R_REDIS" style="fill:none;" marker-end="url(#mermaid-1779717070143_flowchart-pointEnd)"></path><path d="M130.692,482.609L149.53,525.897C168.368,569.185,206.043,655.76,229.048,699.048C252.052,742.336,260.385,742.336,268.719,742.336C277.052,742.336,285.385,742.336,293.98,741.146C302.575,739.956,311.431,737.577,315.86,736.387L320.288,735.197" id="L-MI_API-R_APPINS-0" class="edge-thickness-normal edge-pattern-solid flowchart-link LS-MI_API LE-R_APPINS" style="fill:none;" marker-end="url(#mermaid-1779717070143_flowchart-pointEnd)"></path><path d="M131.882,328.625L150.521,290.878C169.161,253.13,206.44,177.635,229.246,139.888C252.052,102.141,260.385,102.141,268.719,102.141C277.052,102.141,285.385,102.141,297.104,100.626C308.822,99.112,323.926,96.084,331.478,94.57L339.03,93.056" id="L-MI_ADM-R_KV-0" class="edge-thickness-normal edge-pattern-solid flowchart-link LS-MI_ADM LE-R_KV" style="fill:none;" marker-end="url(#mermaid-1779717070143_flowchart-pointEnd)"></path><path d="M140.229,328.625L157.478,309.568C174.726,290.51,209.222,252.396,230.637,233.339C252.052,214.281,260.385,214.281,268.719,214.281C277.052,214.281,285.385,214.281,296.258,213.13C307.131,211.979,320.544,209.678,327.25,208.527L333.956,207.376" id="L-MI_ADM-R_COSMOS-0" class="edge-thickness-normal edge-pattern-solid flowchart-link LS-MI_ADM LE-R_COSMOS" style="fill:none;" marker-end="url(#mermaid-1779717070143_flowchart-pointEnd)"></path><path d="M175.602,348.922L186.954,348.922C198.307,348.922,221.013,348.922,236.533,348.922C252.052,348.922,260.385,348.922,268.719,348.922C277.052,348.922,285.385,348.922,306.574,344.634C327.763,340.346,361.808,331.77,378.83,327.481L395.853,323.193" id="L-MI_ADM-R_ACR-0" class="edge-thickness-normal edge-pattern-solid flowchart-link LS-MI_ADM LE-R_ACR" style="fill:none;" marker-end="url(#mermaid-1779717070143_flowchart-pointEnd)"></path><path d="M129.174,369.219L148.265,422.189C167.356,475.159,205.537,581.099,228.795,634.069C252.052,687.039,260.385,687.039,268.719,687.039C277.052,687.039,285.385,687.039,293.957,687.594C302.528,688.149,311.338,689.258,315.743,689.813L320.148,690.368" id="L-MI_ADM-R_APPINS-0" class="edge-thickness-normal edge-pattern-solid flowchart-link LS-MI_ADM LE-R_APPINS" style="fill:none;" marker-end="url(#mermaid-1779717070143_flowchart-pointEnd)"></path><path d="M133.599,238.031L151.953,206.301C170.306,174.57,207.012,111.109,229.532,79.379C252.052,47.648,260.385,47.648,268.719,47.648C277.052,47.648,285.385,47.648,297.102,49.071C308.819,50.493,323.918,53.338,331.468,54.761L339.018,56.183" id="L-MI_MCP-R_KV-0" class="edge-thickness-normal edge-pattern-solid flowchart-link LS-MI_MCP LE-R_KV" style="fill:none;" marker-end="url(#mermaid-1779717070143_flowchart-pointEnd)"></path><path d="M143.147,238.031L159.909,222.049C176.671,206.068,210.195,174.104,231.123,158.122C252.052,142.141,260.385,142.141,268.719,142.141C277.052,142.141,285.385,142.141,296.293,144.455C307.201,146.768,320.684,151.396,327.425,153.71L334.167,156.024" id="L-MI_MCP-R_COSMOS-0" class="edge-thickness-normal edge-pattern-solid flowchart-link LS-MI_MCP LE-R_COSMOS" style="fill:none;" marker-end="url(#mermaid-1779717070143_flowchart-pointEnd)"></path><path d="M180.477,258.328L191.017,258.328C201.557,258.328,222.638,258.328,237.345,258.328C252.052,258.328,260.385,258.328,268.719,258.328C277.052,258.328,285.385,258.328,306.609,265.06C327.833,271.791,361.948,285.255,379.005,291.986L396.062,298.718" id="L-MI_MCP-R_ACR-0" class="edge-thickness-normal edge-pattern-solid flowchart-link LS-MI_MCP LE-R_ACR" style="fill:none;" marker-end="url(#mermaid-1779717070143_flowchart-pointEnd)"></path><path d="M130.628,278.625L149.476,322.255C168.325,365.885,206.022,453.146,229.037,496.776C252.052,540.406,260.385,540.406,268.719,540.406C277.052,540.406,285.385,540.406,301.037,544.348C316.688,548.29,339.658,556.174,351.143,560.116L362.628,564.059" id="L-MI_MCP-R_REDIS-0" class="edge-thickness-normal edge-pattern-solid flowchart-link LS-MI_MCP LE-R_REDIS" style="fill:none;" marker-end="url(#mermaid-1779717070143_flowchart-pointEnd)"></path><path d="M128.171,278.625L147.429,340.553C166.687,402.482,205.203,526.339,228.627,588.267C252.052,650.195,260.385,650.195,268.719,650.195C277.052,650.195,285.385,650.195,297.899,653.442C310.413,656.688,327.107,663.18,335.454,666.426L343.802,669.673" id="L-MI_MCP-R_APPINS-0" class="edge-thickness-normal edge-pattern-solid flowchart-link LS-MI_MCP LE-R_APPINS" style="fill:none;" marker-end="url(#mermaid-1779717070143_flowchart-pointEnd)"></path></g><g class="edgeLabels"><g class="edgeLabel"><g class="label" transform="translate(0, 0)"><foreignObject width="0" height="0"><div xmlns="http://www.w3.org/1999/xhtml" style="display: inline-block; white-space: nowrap;"><span class="edgeLabel"></span></div></foreignObject></g></g><g class="edgeLabel"><g class="label" transform="translate(0, 0)"><foreignObject width="0" height="0"><div xmlns="http://www.w3.org/1999/xhtml" style="display: inline-block; white-space: nowrap;"><span class="edgeLabel"></span></div></foreignObject></g></g><g class="edgeLabel" transform="translate(640.2890625, 921.3203125)"><g class="label" transform="translate(-41.3359375, -12.796875)"><foreignObject width="82.671875" height="25.59375"><div xmlns="http://www.w3.org/1999/xhtml" style="display: inline-block; white-space: nowrap;"><span class="edgeLabel">issues JWT</span></div></foreignObject></g></g><g class="edgeLabel" transform="translate(969.109375, 1114.3515625)"><g class="label" transform="translate(-42.671875, -12.796875)"><foreignObject width="85.34375" height="25.59375"><div xmlns="http://www.w3.org/1999/xhtml" style="display: inline-block; white-space: nowrap;"><span class="edgeLabel">Bearer JWT</span></div></foreignObject></g></g><g class="edgeLabel" transform="translate(791.53125, 853.2265625)"><g class="label" transform="translate(-84.90625, -12.796875)"><foreignObject width="169.8125" height="25.59375"><div xmlns="http://www.w3.org/1999/xhtml" style="display: inline-block; white-space: nowrap;"><span class="edgeLabel">JWKS / OIDC discovery</span></div></foreignObject></g></g><g class="edgeLabel"><g class="label" transform="translate(0, 0)"><foreignObject width="0" height="0"><div xmlns="http://www.w3.org/1999/xhtml" style="display: inline-block; white-space: nowrap;"><span class="edgeLabel"></span></div></foreignObject></g></g><g class="edgeLabel"><g class="label" transform="translate(0, 0)"><foreignObject width="0" height="0"><div xmlns="http://www.w3.org/1999/xhtml" style="display: inline-block; white-space: nowrap;"><span class="edgeLabel"></span></div></foreignObject></g></g><g class="edgeLabel"><g class="label" transform="translate(0, 0)"><foreignObject width="0" height="0"><div xmlns="http://www.w3.org/1999/xhtml" style="display: inline-block; white-space: nowrap;"><span class="edgeLabel"></span></div></foreignObject></g></g><g class="edgeLabel"><g class="label" transform="translate(0, 0)"><foreignObject width="0" height="0"><div xmlns="http://www.w3.org/1999/xhtml" style="display: inline-block; white-space: nowrap;"><span class="edgeLabel"></span></div></foreignObject></g></g><g class="edgeLabel"><g class="label" transform="translate(0, 0)"><foreignObject width="0" height="0"><div xmlns="http://www.w3.org/1999/xhtml" style="display: inline-block; white-space: nowrap;"><span class="edgeLabel"></span></div></foreignObject></g></g><g class="edgeLabel"><g class="label" transform="translate(0, 0)"><foreignObject width="0" height="0"><div xmlns="http://www.w3.org/1999/xhtml" style="display: inline-block; white-space: nowrap;"><span class="edgeLabel"></span></div></foreignObject></g></g><g class="edgeLabel"><g class="label" transform="translate(0, 0)"><foreignObject width="0" height="0"><div xmlns="http://www.w3.org/1999/xhtml" style="display: inline-block; white-space: nowrap;"><span class="edgeLabel"></span></div></foreignObject></g></g><g class="edgeLabel"><g class="label" transform="translate(0, 0)"><foreignObject width="0" height="0"><div xmlns="http://www.w3.org/1999/xhtml" style="display: inline-block; white-space: nowrap;"><span class="edgeLabel"></span></div></foreignObject></g></g><g class="edgeLabel"><g class="label" transform="translate(0, 0)"><foreignObject width="0" height="0"><div xmlns="http://www.w3.org/1999/xhtml" style="display: inline-block; white-space: nowrap;"><span class="edgeLabel"></span></div></foreignObject></g></g><g class="edgeLabel"><g class="label" transform="translate(0, 0)"><foreignObject width="0" height="0"><div xmlns="http://www.w3.org/1999/xhtml" style="display: inline-block; white-space: nowrap;"><span class="edgeLabel"></span></div></foreignObject></g></g><g class="edgeLabel"><g class="label" transform="translate(0, 0)"><foreignObject width="0" height="0"><div xmlns="http://www.w3.org/1999/xhtml" style="display: inline-block; white-space: nowrap;"><span class="edgeLabel"></span></div></foreignObject></g></g><g class="edgeLabel"><g class="label" transform="translate(0, 0)"><foreignObject width="0" height="0"><div xmlns="http://www.w3.org/1999/xhtml" style="display: inline-block; white-space: nowrap;"><span class="edgeLabel"></span></div></foreignObject></g></g><g class="edgeLabel"><g class="label" transform="translate(0, 0)"><foreignObject width="0" height="0"><div xmlns="http://www.w3.org/1999/xhtml" style="display: inline-block; white-space: nowrap;"><span class="edgeLabel"></span></div></foreignObject></g></g><g class="edgeLabel"><g class="label" transform="translate(0, 0)"><foreignObject width="0" height="0"><div xmlns="http://www.w3.org/1999/xhtml" style="display: inline-block; white-space: nowrap;"><span class="edgeLabel"></span></div></foreignObject></g></g><g class="edgeLabel"><g class="label" transform="translate(0, 0)"><foreignObject width="0" height="0"><div xmlns="http://www.w3.org/1999/xhtml" style="display: inline-block; white-space: nowrap;"><span class="edgeLabel"></span></div></foreignObject></g></g></g><g class="nodes"><g class="node default res flowchart-label" id="flowchart-R_KV-158" data-node="true" data-id="R_KV" transform="translate(433.8359375, 74.046875)"><rect class="basic label-container" style="" rx="0" ry="0" x="-89.609375" y="-33.09375" width="179.21875" height="66.1875"></rect><g class="label" style="" transform="translate(-82.109375, -25.59375)"><rect></rect><foreignObject width="164.21875" height="51.1875"><div xmlns="http://www.w3.org/1999/xhtml" style="display: inline-block; white-space: nowrap;"><span class="nodeLabel">Key Vault<br/>Key Vault Secrets User</span></div></foreignObject></g></g><g class="node default res flowchart-label" id="flowchart-R_COSMOS-159" data-node="true" data-id="R_COSMOS" transform="translate(433.8359375, 190.234375)"><rect class="basic label-container" style="" rx="0" ry="0" x="-94.65625" y="-33.09375" width="189.3125" height="66.1875"></rect><g class="label" style="" transform="translate(-87.15625, -25.59375)"><rect></rect><foreignObject width="174.3125" height="51.1875"><div xmlns="http://www.w3.org/1999/xhtml" style="display: inline-block; white-space: nowrap;"><span class="nodeLabel">Cosmos DB<br/>Data Reader/Contributor</span></div></foreignObject></g></g><g class="node default res flowchart-label" id="flowchart-R_ACR-160" data-node="true" data-id="R_ACR" transform="translate(433.8359375, 313.625)"><rect class="basic label-container" style="" rx="0" ry="0" x="-32.84375" y="-33.09375" width="65.6875" height="66.1875"></rect><g class="label" style="" transform="translate(-25.34375, -25.59375)"><rect></rect><foreignObject width="50.6875" height="51.1875"><div xmlns="http://www.w3.org/1999/xhtml" style="display: inline-block; white-space: nowrap;"><span class="nodeLabel">ACR<br/>AcrPull</span></div></foreignObject></g></g><g class="node default res flowchart-label" id="flowchart-R_AIF-161" data-node="true" data-id="R_AIF" transform="translate(433.8359375, 472.3125)"><rect class="basic label-container" style="" rx="0" ry="0" x="-76.4296875" y="-33.09375" width="152.859375" height="66.1875"></rect><g class="label" style="" transform="translate(-68.9296875, -25.59375)"><rect></rect><foreignObject width="137.859375" height="51.1875"><div xmlns="http://www.w3.org/1999/xhtml" style="display: inline-block; white-space: nowrap;"><span class="nodeLabel">AI Foundry<br/>Azure AI Developer</span></div></foreignObject></g></g><g class="node default res flowchart-label" id="flowchart-R_REDIS-162" data-node="true" data-id="R_REDIS" transform="translate(433.8359375, 588.5)"><rect class="basic label-container" style="" rx="0" ry="0" x="-66.1953125" y="-33.09375" width="132.390625" height="66.1875"></rect><g class="label" style="" transform="translate(-58.6953125, -25.59375)"><rect></rect><foreignObject width="117.390625" height="51.1875"><div xmlns="http://www.w3.org/1999/xhtml" style="display: inline-block; white-space: nowrap;"><span class="nodeLabel">Redis<br/>Data Contributor</span></div></foreignObject></g></g><g class="node default res flowchart-label" id="flowchart-R_APPINS-163" data-node="true" data-id="R_APPINS" transform="translate(433.8359375, 704.6875)"><rect class="basic label-container" style="" rx="0" ry="0" x="-108.4296875" y="-33.09375" width="216.859375" height="66.1875"></rect><g class="label" style="" transform="translate(-100.9296875, -25.59375)"><rect></rect><foreignObject width="201.859375" height="51.1875"><div xmlns="http://www.w3.org/1999/xhtml" style="display: inline-block; white-space: nowrap;"><span class="nodeLabel">App Insights<br/>Monitoring Metrics Publisher</span></div></foreignObject></g></g><g class="node default default flowchart-label" id="flowchart-SWA_AUTH-156" data-node="true" data-id="SWA_AUTH" transform="translate(121.859375, 1090.3046875)"><rect class="basic label-container" style="" rx="0" ry="0" x="-96.859375" y="-33.09375" width="193.71875" height="66.1875"></rect><g class="label" style="" transform="translate(-89.359375, -25.59375)"><rect></rect><foreignObject width="178.71875" height="51.1875"><div xmlns="http://www.w3.org/1999/xhtml" style="display: inline-block; white-space: nowrap;"><span class="nodeLabel">Static Web Apps<br/>OIDC redirect to Entra ID</span></div></foreignObject></g></g><g class="node default default flowchart-label" id="flowchart-APIM_JWT-157" data-node="true" data-id="APIM_JWT" transform="translate(1126.09375, 1090.3046875)"><rect class="basic label-container" style="" rx="0" ry="0" x="-89.3125" y="-45.890625" width="178.625" height="91.78125"></rect><g class="label" style="" transform="translate(-81.8125, -38.390625)"><rect></rect><foreignObject width="163.625" height="76.78125"><div xmlns="http://www.w3.org/1999/xhtml" style="display: inline-block; white-space: nowrap;"><span class="nodeLabel">APIM<br/>validate-jwt policy<br/>against Entra ID JWKS</span></div></foreignObject></g></g><g class="node default mi flowchart-label" id="flowchart-MI_API-153" data-node="true" data-id="MI_API" transform="translate(121.859375, 462.3125)"><rect class="basic label-container" style="" rx="0" ry="0" x="-47.9609375" y="-20.296875" width="95.921875" height="40.59375"></rect><g class="label" style="" transform="translate(-40.4609375, -12.796875)"><rect></rect><foreignObject width="80.921875" height="25.59375"><div xmlns="http://www.w3.org/1999/xhtml" style="display: inline-block; white-space: nowrap;"><span class="nodeLabel">api-prod MI</span></div></foreignObject></g></g><g class="node default mi flowchart-label" id="flowchart-MI_ADM-154" data-node="true" data-id="MI_ADM" transform="translate(121.859375, 348.921875)"><rect class="basic label-container" style="" rx="0" ry="0" x="-53.7421875" y="-20.296875" width="107.484375" height="40.59375"></rect><g class="label" style="" transform="translate(-46.2421875, -12.796875)"><rect></rect><foreignObject width="92.484375" height="25.59375"><div xmlns="http://www.w3.org/1999/xhtml" style="display: inline-block; white-space: nowrap;"><span class="nodeLabel">api-admin MI</span></div></foreignObject></g></g><g class="node default mi flowchart-label" id="flowchart-MI_MCP-155" data-node="true" data-id="MI_MCP" transform="translate(121.859375, 258.328125)"><rect class="basic label-container" style="" rx="0" ry="0" x="-58.6171875" y="-20.296875" width="117.234375" height="40.59375"></rect><g class="label" style="" transform="translate(-51.1171875, -12.796875)"><rect></rect><foreignObject width="102.234375" height="25.59375"><div xmlns="http://www.w3.org/1999/xhtml" style="display: inline-block; white-space: nowrap;"><span class="nodeLabel">mcp-server MI</span></div></foreignObject></g></g><g class="node default default flowchart-label" id="flowchart-ADMIN_USER-151" data-node="true" data-id="ADMIN_USER" transform="translate(791.53125, 921.3203125)"><rect class="basic label-container" style="" rx="0" ry="0" x="-71.53125" y="-20.296875" width="143.0625" height="40.59375"></rect><g class="label" style="" transform="translate(-64.03125, -12.796875)"><rect></rect><foreignObject width="128.0625" height="25.59375"><div xmlns="http://www.w3.org/1999/xhtml" style="display: inline-block; white-space: nowrap;"><span class="nodeLabel">Airline admin user</span></div></foreignObject></g></g><g class="node default id flowchart-label" id="flowchart-ENTRA_ID-152" data-node="true" data-id="ENTRA_ID" transform="translate(433.8359375, 887.2734375)"><rect class="basic label-container" style="" rx="0" ry="0" x="-115.1171875" y="-45.890625" width="230.234375" height="91.78125"></rect><g class="label" style="" transform="translate(-107.6171875, -38.390625)"><rect></rect><foreignObject width="215.234375" height="76.78125"><div xmlns="http://www.w3.org/1999/xhtml" style="display: inline-block; white-space: nowrap;"><span class="nodeLabel">Microsoft Entra ID (P1)<br/>Conditional Access<br/>MFA · Federation to airline IdP</span></div></foreignObject></g></g></g></g></g></svg>