<svg id="mermaid-1779717069921" width="100%" xmlns="http://www.w3.org/2000/svg" xmlns:xlink="http://www.w3.org/1999/xlink" style="max-width: 2840.7578125px;" viewBox="-8 -8 2840.7578125 1477.03125" role="graphics-document document" aria-roledescription="flowchart-v2"><style>#mermaid-1779717069921{font-family:Segoe UI,sans-serif;font-size:16px;fill:#ffffff;}#mermaid-1779717069921 .error-icon{fill:#f7f9fc;}#mermaid-1779717069921 .error-text{fill:#080603;stroke:#080603;}#mermaid-1779717069921 .edge-thickness-normal{stroke-width:2px;}#mermaid-1779717069921 .edge-thickness-thick{stroke-width:3.5px;}#mermaid-1779717069921 .edge-pattern-solid{stroke-dasharray:0;}#mermaid-1779717069921 .edge-pattern-dashed{stroke-dasharray:3;}#mermaid-1779717069921 .edge-pattern-dotted{stroke-dasharray:2;}#mermaid-1779717069921 .marker{fill:#4a5460;stroke:#4a5460;}#mermaid-1779717069921 .marker.cross{stroke:#4a5460;}#mermaid-1779717069921 svg{font-family:Segoe UI,sans-serif;font-size:16px;}#mermaid-1779717069921 .label{font-family:Segoe UI,sans-serif;color:#ffffff;}#mermaid-1779717069921 .cluster-label text{fill:#080603;}#mermaid-1779717069921 .cluster-label span,#mermaid-1779717069921 p{color:#080603;}#mermaid-1779717069921 .label text,#mermaid-1779717069921 span,#mermaid-1779717069921 p{fill:#ffffff;color:#ffffff;}#mermaid-1779717069921 .node rect,#mermaid-1779717069921 .node circle,#mermaid-1779717069921 .node ellipse,#mermaid-1779717069921 .node polygon,#mermaid-1779717069921 .node path{fill:#0078d4;stroke:#005a9e;stroke-width:1px;}#mermaid-1779717069921 .flowchart-label text{text-anchor:middle;}#mermaid-1779717069921 .node .katex path{fill:#000;stroke:#000;stroke-width:1px;}#mermaid-1779717069921 .node .label{text-align:center;}#mermaid-1779717069921 .node.clickable{cursor:pointer;}#mermaid-1779717069921 .arrowheadPath{fill:#0b0b0b;}#mermaid-1779717069921 .edgePath .path{stroke:#4a5460;stroke-width:2.0px;}#mermaid-1779717069921 .flowchart-link{stroke:#4a5460;fill:none;}#mermaid-1779717069921 .edgeLabel{background-color:#eef5fc;text-align:center;}#mermaid-1779717069921 .edgeLabel rect{opacity:0.5;background-color:#eef5fc;fill:#eef5fc;}#mermaid-1779717069921 .labelBkg{background-color:rgba(238, 245, 252, 0.5);}#mermaid-1779717069921 .cluster rect{fill:#f7f9fc;stroke:hsl(216, 5.4545454545%, 87.8431372549%);stroke-width:1px;}#mermaid-1779717069921 .cluster text{fill:#080603;}#mermaid-1779717069921 .cluster span,#mermaid-1779717069921 p{color:#080603;}#mermaid-1779717069921 div.mermaidTooltip{position:absolute;text-align:center;max-width:200px;padding:2px;font-family:Segoe UI,sans-serif;font-size:12px;background:#f7f9fc;border:1px solid hsl(216, 5.4545454545%, 87.8431372549%);border-radius:2px;pointer-events:none;z-index:100;}#mermaid-1779717069921 .flowchartTitleText{text-anchor:middle;font-size:18px;fill:#ffffff;}#mermaid-1779717069921 :root{--mermaid-font-family:"trebuchet ms",verdana,arial,sans-serif;}#mermaid-1779717069921 .edge&gt;*{fill:rgb(0, 120, 212)!important;stroke:rgb(0, 90, 158)!important;color:rgb(255, 255, 255)!important;}#mermaid-1779717069921 .edge span{fill:rgb(0, 120, 212)!important;stroke:rgb(0, 90, 158)!important;color:rgb(255, 255, 255)!important;}#mermaid-1779717069921 .edge tspan{fill:rgb(255, 255, 255)!important;}#mermaid-1779717069921 .aca&gt;*{fill:rgb(59, 130, 246)!important;stroke:rgb(29, 78, 216)!important;color:rgb(255, 255, 255)!important;}#mermaid-1779717069921 .aca span{fill:rgb(59, 130, 246)!important;stroke:rgb(29, 78, 216)!important;color:rgb(255, 255, 255)!important;}#mermaid-1779717069921 .aca tspan{fill:rgb(255, 255, 255)!important;}#mermaid-1779717069921 .ai&gt;*{fill:rgb(124, 58, 237)!important;stroke:rgb(91, 33, 182)!important;color:rgb(255, 255, 255)!important;}#mermaid-1779717069921 .ai span{fill:rgb(124, 58, 237)!important;stroke:rgb(91, 33, 182)!important;color:rgb(255, 255, 255)!important;}#mermaid-1779717069921 .ai tspan{fill:rgb(255, 255, 255)!important;}#mermaid-1779717069921 .data&gt;*{fill:rgb(15, 118, 110)!important;stroke:rgb(13, 92, 85)!important;color:rgb(255, 255, 255)!important;}#mermaid-1779717069921 .data span{fill:rgb(15, 118, 110)!important;stroke:rgb(13, 92, 85)!important;color:rgb(255, 255, 255)!important;}#mermaid-1779717069921 .data tspan{fill:rgb(255, 255, 255)!important;}#mermaid-1779717069921 .cache&gt;*{fill:rgb(220, 38, 38)!important;stroke:rgb(153, 27, 27)!important;color:rgb(255, 255, 255)!important;}#mermaid-1779717069921 .cache span{fill:rgb(220, 38, 38)!important;stroke:rgb(153, 27, 27)!important;color:rgb(255, 255, 255)!important;}#mermaid-1779717069921 .cache tspan{fill:rgb(255, 255, 255)!important;}#mermaid-1779717069921 .sec&gt;*{fill:rgb(180, 83, 9)!important;stroke:rgb(124, 45, 18)!important;color:rgb(255, 255, 255)!important;}#mermaid-1779717069921 .sec span{fill:rgb(180, 83, 9)!important;stroke:rgb(124, 45, 18)!important;color:rgb(255, 255, 255)!important;}#mermaid-1779717069921 .sec tspan{fill:rgb(255, 255, 255)!important;}#mermaid-1779717069921 .obs&gt;*{fill:rgb(21, 128, 61)!important;stroke:rgb(20, 83, 45)!important;color:rgb(255, 255, 255)!important;}#mermaid-1779717069921 .obs span{fill:rgb(21, 128, 61)!important;stroke:rgb(20, 83, 45)!important;color:rgb(255, 255, 255)!important;}#mermaid-1779717069921 .obs tspan{fill:rgb(255, 255, 255)!important;}#mermaid-1779717069921 .id&gt;*{fill:rgb(8, 145, 178)!important;stroke:rgb(14, 116, 144)!important;color:rgb(255, 255, 255)!important;}#mermaid-1779717069921 .id span{fill:rgb(8, 145, 178)!important;stroke:rgb(14, 116, 144)!important;color:rgb(255, 255, 255)!important;}#mermaid-1779717069921 .id tspan{fill:rgb(255, 255, 255)!important;}#mermaid-1779717069921 .ext&gt;*{fill:rgb(107, 114, 128)!important;stroke:rgb(75, 85, 99)!important;color:rgb(255, 255, 255)!important;}#mermaid-1779717069921 .ext span{fill:rgb(107, 114, 128)!important;stroke:rgb(75, 85, 99)!important;color:rgb(255, 255, 255)!important;}#mermaid-1779717069921 .ext tspan{fill:rgb(255, 255, 255)!important;}</style><g><marker id="mermaid-1779717069921_flowchart-pointEnd" class="marker flowchart" viewBox="0 0 10 10" refX="6" refY="5" markerUnits="userSpaceOnUse" markerWidth="12" markerHeight="12" orient="auto"><path d="M 0 0 L 10 5 L 0 10 z" class="arrowMarkerPath" style="stroke-width: 1; stroke-dasharray: 1, 0;"></path></marker><marker id="mermaid-1779717069921_flowchart-pointStart" class="marker flowchart" viewBox="0 0 10 10" refX="4.5" refY="5" markerUnits="userSpaceOnUse" markerWidth="12" markerHeight="12" orient="auto"><path d="M 0 5 L 10 10 L 10 0 z" class="arrowMarkerPath" style="stroke-width: 1; stroke-dasharray: 1, 0;"></path></marker><marker id="mermaid-1779717069921_flowchart-circleEnd" class="marker flowchart" viewBox="0 0 10 10" refX="11" refY="5" markerUnits="userSpaceOnUse" markerWidth="11" markerHeight="11" orient="auto"><circle cx="5" cy="5" r="5" class="arrowMarkerPath" style="stroke-width: 1; stroke-dasharray: 1, 0;"></circle></marker><marker id="mermaid-1779717069921_flowchart-circleStart" class="marker flowchart" viewBox="0 0 10 10" refX="-1" refY="5" markerUnits="userSpaceOnUse" markerWidth="11" markerHeight="11" orient="auto"><circle cx="5" cy="5" r="5" class="arrowMarkerPath" style="stroke-width: 1; stroke-dasharray: 1, 0;"></circle></marker><marker id="mermaid-1779717069921_flowchart-crossEnd" class="marker cross flowchart" viewBox="0 0 11 11" refX="12" refY="5.2" markerUnits="userSpaceOnUse" markerWidth="11" markerHeight="11" orient="auto"><path d="M 1,1 l 9,9 M 10,1 l -9,9" class="arrowMarkerPath" style="stroke-width: 2; stroke-dasharray: 1, 0;"></path></marker><marker id="mermaid-1779717069921_flowchart-crossStart" class="marker cross flowchart" viewBox="0 0 11 11" refX="-1" refY="5.2" markerUnits="userSpaceOnUse" markerWidth="11" markerHeight="11" orient="auto"><path d="M 1,1 l 9,9 M 10,1 l -9,9" class="arrowMarkerPath" style="stroke-width: 2; stroke-dasharray: 1, 0;"></path></marker><g class="root"><g class="clusters"><g class="cluster default flowchart-label" id="EXT"><rect style="" rx="0" ry="0" x="300.8203125" y="1152.46875" width="547.796875" height="167.375"></rect><g class="cluster-label" transform="translate(437.3359375, 1152.46875)"><foreignObject width="274.765625" height="25.59375"><div xmlns="http://www.w3.org/1999/xhtml" style="display: inline-block; white-space: nowrap;"><span class="nodeLabel">TENANT EXTERNAL APIs (per airline)</span></div></foreignObject></g></g><g class="cluster default flowchart-label" id="OBS"><rect style="" rx="0" ry="0" x="868.6171875" y="1152.46875" width="334.859375" height="308.5625"></rect><g class="cluster-label" transform="translate(973.640625, 1152.46875)"><foreignObject width="124.8125" height="25.59375"><div xmlns="http://www.w3.org/1999/xhtml" style="display: inline-block; white-space: nowrap;"><span class="nodeLabel">OBSERVABILITY</span></div></foreignObject></g></g><g class="cluster default flowchart-label" id="SEC"><rect style="" rx="0" ry="0" x="1223.4765625" y="1152.46875" width="897.75" height="167.375"></rect><g class="cluster-label" transform="translate(1631.8984375, 1152.46875)"><foreignObject width="80.90625" height="25.59375"><div xmlns="http://www.w3.org/1999/xhtml" style="display: inline-block; white-space: nowrap;"><span class="nodeLabel">SECURITY</span></div></foreignObject></g></g><g class="cluster default flowchart-label" id="DATA"><rect style="" rx="0" ry="0" x="2141.2265625" y="1152.46875" width="315.3125" height="167.375"></rect><g class="cluster-label" transform="translate(2221.9609375, 1152.46875)"><foreignObject width="153.84375" height="25.59375"><div xmlns="http://www.w3.org/1999/xhtml" style="display: inline-block; white-space: nowrap;"><span class="nodeLabel">AZURE DATA LAYER</span></div></foreignObject></g></g><g class="cluster default flowchart-label" id="CACHELAYER"><rect style="" rx="0" ry="0" x="2476.5390625" y="1152.46875" width="348.21875" height="167.375"></rect><g class="cluster-label" transform="translate(2565.4375, 1152.46875)"><foreignObject width="170.421875" height="25.59375"><div xmlns="http://www.w3.org/1999/xhtml" style="display: inline-block; white-space: nowrap;"><span class="nodeLabel">AZURE CACHE LAYER</span></div></foreignObject></g></g><g class="cluster default flowchart-label" id="AI"><rect style="" rx="0" ry="0" x="0" y="909.5" width="334.015625" height="167.375"></rect><g class="cluster-label" transform="translate(85.359375, 909.5)"><foreignObject width="163.296875" height="25.59375"><div xmlns="http://www.w3.org/1999/xhtml" style="display: inline-block; white-space: nowrap;"><span class="nodeLabel">AZURE AI PLATFORM</span></div></foreignObject></g></g><g class="cluster default flowchart-label" id="ACA"><rect style="" rx="0" ry="0" x="354.015625" y="691.53125" width="2326.6328125" height="385.34375"></rect><g class="cluster-label" transform="translate(1285.69921875, 691.53125)"><foreignObject width="463.265625" height="25.59375"><div xmlns="http://www.w3.org/1999/xhtml" style="display: inline-block; white-space: nowrap;"><span class="nodeLabel">AZURE CONTAINER APPS ENVIRONMENT — VNET integrated</span></div></foreignObject></g></g><g class="cluster default flowchart-label" id="EDGE"><rect style="" rx="0" ry="0" x="1285.91796875" y="357.96875" width="626.6171875" height="283.5625"></rect><g class="cluster-label" transform="translate(1519.3515625, 357.96875)"><foreignObject width="159.75" height="25.59375"><div xmlns="http://www.w3.org/1999/xhtml" style="display: inline-block; white-space: nowrap;"><span class="nodeLabel">AZURE EDGE LAYER</span></div></foreignObject></g></g><g class="cluster default flowchart-label" id="IDENTITY"><rect style="" rx="0" ry="0" x="1364.4609375" y="166.1875" width="362.3515625" height="141.78125"></rect><g class="cluster-label" transform="translate(1509.19140625, 166.1875)"><foreignObject width="72.890625" height="25.59375"><div xmlns="http://www.w3.org/1999/xhtml" style="display: inline-block; white-space: nowrap;"><span class="nodeLabel">IDENTITY</span></div></foreignObject></g></g><g class="cluster default flowchart-label" id="PUBLIC"><rect style="" rx="0" ry="0" x="1438.33203125" y="0" width="548.6875" height="116.1875"></rect><g class="cluster-label" transform="translate(1641.55078125, 0)"><foreignObject width="142.25" height="25.59375"><div xmlns="http://www.w3.org/1999/xhtml" style="display: inline-block; white-space: nowrap;"><span class="nodeLabel">PUBLIC INTERNET</span></div></foreignObject></g></g></g><g class="edgePaths"><path d="M1814.98,91.188L1814.98,95.354C1814.98,99.521,1814.98,107.854,1814.98,116.188C1814.98,124.521,1814.98,132.854,1814.98,141.188C1814.98,149.521,1814.98,157.854,1814.98,173.836C1814.98,189.818,1814.98,213.448,1814.98,237.078C1814.98,260.708,1814.98,284.339,1814.98,300.32C1814.98,316.302,1814.98,324.635,1814.98,332.969C1814.98,341.302,1814.98,349.635,1814.98,365.617C1814.98,381.599,1814.98,405.229,1814.98,428.859C1814.98,452.49,1814.98,476.12,1807.99,491.684C1801,507.248,1787.02,514.747,1780.03,518.496L1773.04,522.245" id="L-PAX-APIM-0" class="edge-thickness-normal edge-pattern-solid flowchart-link LS-PAX LE-APIM" style="fill:none;" marker-end="url(#mermaid-1779717069921_flowchart-pointEnd)"></path><path d="M1550.637,78.391L1550.637,84.69C1550.637,90.99,1550.637,103.589,1550.637,114.055C1550.637,124.521,1550.637,132.854,1550.637,141.188C1550.637,149.521,1550.637,157.854,1550.637,165.304C1550.637,172.754,1550.637,179.321,1550.637,182.604L1550.637,185.888" id="L-ADM_USER-ENTRA-0" class="edge-thickness-normal edge-pattern-solid flowchart-link LS-ADM_USER LE-ENTRA" style="fill:none;" marker-end="url(#mermaid-1779717069921_flowchart-pointEnd)"></path><path d="M1488.719,282.969L1483.097,287.135C1477.476,291.302,1466.232,299.635,1460.61,307.969C1454.988,316.302,1454.988,324.635,1454.988,332.969C1454.988,341.302,1454.988,349.635,1454.988,357.085C1454.988,364.535,1454.988,371.102,1454.988,374.385L1454.988,377.669" id="L-ENTRA-SWA-0" class="edge-thickness-normal edge-pattern-solid flowchart-link LS-ENTRA LE-SWA" style="fill:none;" marker-end="url(#mermaid-1779717069921_flowchart-pointEnd)"></path><path d="M1612.554,282.969L1618.176,287.135C1623.798,291.302,1635.041,299.635,1640.663,307.969C1646.285,316.302,1646.285,324.635,1646.285,332.969C1646.285,341.302,1646.285,349.635,1646.285,365.617C1646.285,381.599,1646.285,405.229,1646.285,428.859C1646.285,452.49,1646.285,476.12,1648.027,491.316C1649.769,506.513,1653.254,513.276,1654.996,516.657L1656.738,520.039" id="L-ENTRA-APIM-0" class="edge-thickness-normal edge-pattern-dotted flowchart-link LS-ENTRA LE-APIM" style="fill:none;stroke-width:2px;stroke-dasharray:3;" marker-end="url(#mermaid-1779717069921_flowchart-pointEnd)"></path><path d="M1454.988,474.75L1454.988,478.917C1454.988,483.083,1454.988,491.417,1471.968,500.867C1488.947,510.317,1522.906,520.884,1539.886,526.167L1556.865,531.451" id="L-SWA-APIM-0" class="edge-thickness-normal edge-pattern-solid flowchart-link LS-SWA LE-APIM" style="fill:none;" marker-end="url(#mermaid-1779717069921_flowchart-pointEnd)"></path><path d="M1573.003,616.531L1563.033,620.698C1553.063,624.865,1533.123,633.198,1523.153,641.531C1513.184,649.865,1513.184,658.198,1513.184,666.531C1513.184,674.865,1513.184,683.198,1513.184,690.648C1513.184,698.098,1513.184,704.665,1513.184,707.948L1513.184,711.231" id="L-APIM-CA_API-0" class="edge-thickness-normal edge-pattern-solid flowchart-link LS-APIM LE-CA_API" style="fill:none;" marker-end="url(#mermaid-1779717069921_flowchart-pointEnd)"></path><path d="M1800.936,616.531L1811.662,620.698C1822.387,624.865,1843.838,633.198,1854.564,641.531C1865.289,649.865,1865.289,658.198,1865.289,666.531C1865.289,674.865,1865.289,683.198,1865.289,699.18C1865.289,715.161,1865.289,738.792,1865.289,766.688C1865.289,794.583,1865.289,826.745,1865.289,851.258C1865.289,875.771,1865.289,892.635,1865.289,906.484C1865.289,920.332,1865.289,931.165,1865.289,936.581L1865.289,941.997" id="L-APIM-CA_ADMIN-0" class="edge-thickness-normal edge-pattern-solid flowchart-link LS-APIM LE-CA_ADMIN" style="fill:none;" marker-end="url(#mermaid-1779717069921_flowchart-pointEnd)"></path><path d="M1394.416,808.313L1372.593,816.745C1350.77,825.177,1307.123,842.042,1285.3,858.906C1263.477,875.771,1263.477,892.635,1263.477,906.484C1263.477,920.332,1263.477,931.165,1263.477,936.581L1263.477,941.997" id="L-CA_API-CA_MCP-0" class="edge-thickness-normal edge-pattern-solid flowchart-link LS-CA_API LE-CA_MCP" style="fill:none;" marker-end="url(#mermaid-1779717069921_flowchart-pointEnd)"></path><path d="M1387.855,773.734L1230.576,787.929C1073.297,802.124,758.738,830.515,601.459,853.143C444.18,875.771,444.18,892.635,420.831,908.117C397.483,923.599,350.786,937.699,327.438,944.748L304.089,951.798" id="L-CA_API-AIF-0" class="edge-thickness-normal edge-pattern-solid flowchart-link LS-CA_API LE-AIF" style="fill:none;" marker-end="url(#mermaid-1779717069921_flowchart-pointEnd)"></path><path d="M1638.512,772.96L1808.868,787.284C1979.224,801.609,2319.936,830.258,2490.292,853.014C2660.648,875.771,2660.648,892.635,2660.648,915.016C2660.648,937.396,2660.648,965.292,2660.648,993.188C2660.648,1021.083,2660.648,1048.979,2660.648,1069.227C2660.648,1089.474,2660.648,1102.073,2660.648,1114.672C2660.648,1127.271,2660.648,1139.87,2660.001,1151.592C2659.353,1163.314,2658.057,1174.158,2657.409,1179.581L2656.761,1185.003" id="L-CA_API-REDIS-0" class="edge-thickness-normal edge-pattern-solid flowchart-link LS-CA_API LE-REDIS" style="fill:none;" marker-end="url(#mermaid-1779717069921_flowchart-pointEnd)"></path><path d="M1638.512,776.409L1761.712,790.158C1884.911,803.908,2131.311,831.407,2254.511,853.589C2377.711,875.771,2377.711,892.635,2377.711,915.016C2377.711,937.396,2377.711,965.292,2377.711,993.188C2377.711,1021.083,2377.711,1048.979,2377.711,1069.227C2377.711,1089.474,2377.711,1102.073,2377.711,1114.672C2377.711,1127.271,2377.711,1139.87,2374.392,1149.693C2371.073,1159.516,2364.435,1166.563,2361.116,1170.087L2357.797,1173.611" id="L-CA_API-COSMOS-0" class="edge-thickness-normal edge-pattern-solid flowchart-link LS-CA_API LE-COSMOS" style="fill:none;" marker-end="url(#mermaid-1779717069921_flowchart-pointEnd)"></path><path d="M2040.883,1027.079L2083.883,1035.378C2126.883,1043.677,2212.883,1060.276,2255.883,1074.875C2298.883,1089.474,2298.883,1102.073,2298.883,1114.672C2298.883,1127.271,2298.883,1139.87,2298.883,1149.453C2298.883,1159.035,2298.883,1165.602,2298.883,1168.885L2298.883,1172.169" id="L-CA_ADMIN-COSMOS-0" class="edge-thickness-normal edge-pattern-solid flowchart-link LS-CA_ADMIN LE-COSMOS" style="fill:none;" marker-end="url(#mermaid-1779717069921_flowchart-pointEnd)"></path><path d="M1413.281,1002.684L1608.333,1015.049C1803.385,1027.414,2193.49,1052.145,2388.542,1070.809C2583.594,1089.474,2583.594,1102.073,2583.594,1114.672C2583.594,1127.271,2583.594,1139.87,2588.089,1151.779C2592.584,1163.689,2601.574,1174.909,2606.069,1180.519L2610.564,1186.13" id="L-CA_MCP-REDIS-0" class="edge-thickness-normal edge-pattern-solid flowchart-link LS-CA_MCP LE-REDIS" style="fill:none;" marker-end="url(#mermaid-1779717069921_flowchart-pointEnd)"></path><path d="M1413.281,1006.158L1549.41,1017.944C1685.539,1029.73,1957.797,1053.303,2093.926,1071.388C2230.055,1089.474,2230.055,1102.073,2230.055,1114.672C2230.055,1127.271,2230.055,1139.87,2232.92,1149.654C2235.786,1159.438,2241.518,1166.406,2244.383,1169.891L2247.249,1173.375" id="L-CA_MCP-COSMOS-0" class="edge-thickness-normal edge-pattern-solid flowchart-link LS-CA_MCP LE-COSMOS" style="fill:none;" marker-end="url(#mermaid-1779717069921_flowchart-pointEnd)"></path><path d="M1113.672,1007.607L993.729,1019.151C873.786,1030.696,633.901,1053.786,513.958,1071.63C394.016,1089.474,394.016,1102.073,394.016,1114.672C394.016,1127.271,394.016,1139.87,394.016,1155.851C394.016,1171.832,394.016,1191.196,394.016,1200.878L394.016,1210.559" id="L-CA_MCP-DIS-0" class="edge-thickness-normal edge-pattern-solid flowchart-link LS-CA_MCP LE-DIS" style="fill:none;" marker-end="url(#mermaid-1779717069921_flowchart-pointEnd)"></path><path d="M1113.672,1010.543L1018.25,1021.599C922.828,1032.654,731.984,1054.764,636.563,1072.119C541.141,1089.474,541.141,1102.073,541.141,1114.672C541.141,1127.271,541.141,1139.87,541.141,1155.851C541.141,1171.832,541.141,1191.196,541.141,1200.878L541.141,1210.559" id="L-CA_MCP-CDPAPI-0" class="edge-thickness-normal edge-pattern-solid flowchart-link LS-CA_MCP LE-CDPAPI" style="fill:none;" marker-end="url(#mermaid-1779717069921_flowchart-pointEnd)"></path><path d="M1113.672,1016.334L1048.367,1026.424C983.063,1036.514,852.453,1056.695,787.148,1073.084C721.844,1089.474,721.844,1102.073,721.844,1114.672C721.844,1127.271,721.844,1139.87,721.844,1155.851C721.844,1171.832,721.844,1191.196,721.844,1200.878L721.844,1210.559" id="L-CA_MCP-ALN-0" class="edge-thickness-normal edge-pattern-solid flowchart-link LS-CA_MCP LE-ALN" style="fill:none;" marker-end="url(#mermaid-1779717069921_flowchart-pointEnd)"></path><path d="M1539.789,808.313L1544.678,816.745C1549.566,825.177,1559.344,842.042,1564.232,858.906C1569.121,875.771,1569.121,892.635,1569.121,915.016C1569.121,937.396,1569.121,965.292,1569.121,993.188C1569.121,1021.083,1569.121,1048.979,1569.121,1069.227C1569.121,1089.474,1569.121,1102.073,1569.121,1114.672C1569.121,1127.271,1569.121,1139.87,1557.645,1152.065C1546.169,1164.26,1523.217,1176.052,1511.741,1181.948L1500.265,1187.844" id="L-CA_API-KV-0" class="edge-thickness-normal edge-pattern-dotted flowchart-link LS-CA_API LE-KV" style="fill:none;stroke-width:2px;stroke-dasharray:3;" marker-end="url(#mermaid-1779717069921_flowchart-pointEnd)"></path><path d="M1689.695,1025.198L1642.451,1033.811C1595.206,1042.424,1500.716,1059.649,1453.471,1074.562C1406.227,1089.474,1406.227,1102.073,1406.227,1114.672C1406.227,1127.271,1406.227,1139.87,1406.227,1151.585C1406.227,1163.301,1406.227,1174.133,1406.227,1179.549L1406.227,1184.966" id="L-CA_ADMIN-KV-0" class="edge-thickness-normal edge-pattern-dotted flowchart-link LS-CA_ADMIN LE-KV" style="fill:none;stroke-width:2px;stroke-dasharray:3;" marker-end="url(#mermaid-1779717069921_flowchart-pointEnd)"></path><path d="M1263.477,1039.078L1263.477,1045.378C1263.477,1051.677,1263.477,1064.276,1263.477,1076.875C1263.477,1089.474,1263.477,1102.073,1263.477,1114.672C1263.477,1127.271,1263.477,1139.87,1273.46,1152.022C1283.443,1164.174,1303.41,1175.88,1313.393,1181.732L1323.376,1187.585" id="L-CA_MCP-KV-0" class="edge-thickness-normal edge-pattern-dotted flowchart-link LS-CA_MCP LE-KV" style="fill:none;stroke-width:2px;stroke-dasharray:3;" marker-end="url(#mermaid-1779717069921_flowchart-pointEnd)"></path><path d="M1638.512,782.985L1715.631,795.639C1792.75,808.292,1946.988,833.599,2024.107,854.685C2101.227,875.771,2101.227,892.635,2101.227,915.016C2101.227,937.396,2101.227,965.292,2101.227,993.188C2101.227,1021.083,2101.227,1048.979,2101.227,1069.227C2101.227,1089.474,2101.227,1102.073,2101.227,1114.672C2101.227,1127.271,2101.227,1139.87,2078.286,1154.306C2055.346,1168.743,2009.465,1185.017,1986.525,1193.154L1963.584,1201.291" id="L-CA_API-ACR-0" class="edge-thickness-normal edge-pattern-dotted flowchart-link LS-CA_API LE-ACR" style="fill:none;stroke-width:2px;stroke-dasharray:3;" marker-end="url(#mermaid-1779717069921_flowchart-pointEnd)"></path><path d="M1865.289,1039.078L1865.289,1045.378C1865.289,1051.677,1865.289,1064.276,1865.289,1076.875C1865.289,1089.474,1865.289,1102.073,1865.289,1114.672C1865.289,1127.271,1865.289,1139.87,1865.289,1153.718C1865.289,1167.567,1865.289,1182.665,1865.289,1190.214L1865.289,1197.763" id="L-CA_ADMIN-ACR-0" class="edge-thickness-normal edge-pattern-dotted flowchart-link LS-CA_ADMIN LE-ACR" style="fill:none;stroke-width:2px;stroke-dasharray:3;" marker-end="url(#mermaid-1779717069921_flowchart-pointEnd)"></path><path d="M1413.281,1022.414L1459.807,1031.491C1506.332,1040.567,1599.383,1058.721,1645.908,1074.098C1692.434,1089.474,1692.434,1102.073,1692.434,1114.672C1692.434,1127.271,1692.434,1139.87,1709.055,1154.217C1725.677,1168.563,1758.921,1184.658,1775.542,1192.706L1792.164,1200.753" id="L-CA_MCP-ACR-0" class="edge-thickness-normal edge-pattern-dotted flowchart-link LS-CA_MCP LE-ACR" style="fill:none;stroke-width:2px;stroke-dasharray:3;" marker-end="url(#mermaid-1779717069921_flowchart-pointEnd)"></path><path d="M1387.855,789.545L1334.439,801.105C1281.023,812.666,1174.191,835.786,1120.775,855.778C1067.359,875.771,1067.359,892.635,1067.359,915.016C1067.359,937.396,1067.359,965.292,1067.359,993.188C1067.359,1021.083,1067.359,1048.979,1067.359,1069.227C1067.359,1089.474,1067.359,1102.073,1067.359,1114.672C1067.359,1127.271,1067.359,1139.87,1064.514,1153.774C1061.668,1167.679,1055.977,1182.889,1053.132,1190.494L1050.287,1198.099" id="L-CA_API-APPINS-0" class="edge-thickness-normal edge-pattern-solid flowchart-link LS-CA_API LE-APPINS" style="fill:none;" marker-end="url(#mermaid-1779717069921_flowchart-pointEnd)"></path><path d="M1689.695,1010.909L1580.754,1021.903C1471.813,1032.897,1253.93,1054.886,1144.988,1072.18C1036.047,1089.474,1036.047,1102.073,1036.047,1114.672C1036.047,1127.271,1036.047,1139.87,1036.047,1153.718C1036.047,1167.567,1036.047,1182.665,1036.047,1190.214L1036.047,1197.763" id="L-CA_ADMIN-APPINS-0" class="edge-thickness-normal edge-pattern-solid flowchart-link LS-CA_ADMIN LE-APPINS" style="fill:none;" marker-end="url(#mermaid-1779717069921_flowchart-pointEnd)"></path><path d="M1113.672,1034.818L1088.449,1041.827C1063.225,1048.837,1012.779,1062.856,987.555,1076.165C962.332,1089.474,962.332,1102.073,962.332,1114.672C962.332,1127.271,962.332,1139.87,969.176,1153.939C976.019,1168.008,989.706,1183.546,996.55,1191.316L1003.394,1199.085" id="L-CA_MCP-APPINS-0" class="edge-thickness-normal edge-pattern-solid flowchart-link LS-CA_MCP LE-APPINS" style="fill:none;" marker-end="url(#mermaid-1779717069921_flowchart-pointEnd)"></path><path d="M1036.047,1269.25L1036.047,1277.682C1036.047,1286.115,1036.047,1302.979,1036.047,1315.578C1036.047,1328.177,1036.047,1336.51,1036.047,1343.96C1036.047,1351.41,1036.047,1357.977,1036.047,1361.26L1036.047,1364.544" id="L-APPINS-LAW-0" class="edge-thickness-normal edge-pattern-solid flowchart-link LS-APPINS LE-LAW" style="fill:none;" marker-end="url(#mermaid-1779717069921_flowchart-pointEnd)"></path></g><g class="edgeLabels"><g class="edgeLabel"><g class="label" transform="translate(0, 0)"><foreignObject width="0" height="0"><div xmlns="http://www.w3.org/1999/xhtml" style="display: inline-block; white-space: nowrap;"><span class="edgeLabel"></span></div></foreignObject></g></g><g class="edgeLabel"><g class="label" transform="translate(0, 0)"><foreignObject width="0" height="0"><div xmlns="http://www.w3.org/1999/xhtml" style="display: inline-block; white-space: nowrap;"><span class="edgeLabel"></span></div></foreignObject></g></g><g class="edgeLabel"><g class="label" transform="translate(0, 0)"><foreignObject width="0" height="0"><div xmlns="http://www.w3.org/1999/xhtml" style="display: inline-block; white-space: nowrap;"><span class="edgeLabel"></span></div></foreignObject></g></g><g class="edgeLabel" transform="translate(1646.28515625, 428.859375)"><g class="label" transform="translate(-22.2265625, -12.796875)"><foreignObject width="44.453125" height="25.59375"><div xmlns="http://www.w3.org/1999/xhtml" style="display: inline-block; white-space: nowrap;"><span class="edgeLabel">JWKS</span></div></foreignObject></g></g><g class="edgeLabel"><g class="label" transform="translate(0, 0)"><foreignObject width="0" height="0"><div xmlns="http://www.w3.org/1999/xhtml" style="display: inline-block; white-space: nowrap;"><span class="edgeLabel"></span></div></foreignObject></g></g><g class="edgeLabel"><g class="label" transform="translate(0, 0)"><foreignObject width="0" height="0"><div xmlns="http://www.w3.org/1999/xhtml" style="display: inline-block; white-space: nowrap;"><span class="edgeLabel"></span></div></foreignObject></g></g><g class="edgeLabel"><g class="label" transform="translate(0, 0)"><foreignObject width="0" height="0"><div xmlns="http://www.w3.org/1999/xhtml" style="display: inline-block; white-space: nowrap;"><span class="edgeLabel"></span></div></foreignObject></g></g><g class="edgeLabel" transform="translate(1263.4765625, 858.90625)"><g class="label" transform="translate(-84.9140625, -25.59375)"><foreignObject width="169.828125" height="51.1875"><div xmlns="http://www.w3.org/1999/xhtml" style="display: inline-block; white-space: nowrap;"><span class="edgeLabel">JSON-RPC over private<br/>internal ingress</span></div></foreignObject></g></g><g class="edgeLabel"><g class="label" transform="translate(0, 0)"><foreignObject width="0" height="0"><div xmlns="http://www.w3.org/1999/xhtml" style="display: inline-block; white-space: nowrap;"><span class="edgeLabel"></span></div></foreignObject></g></g><g class="edgeLabel"><g class="label" transform="translate(0, 0)"><foreignObject width="0" height="0"><div xmlns="http://www.w3.org/1999/xhtml" style="display: inline-block; white-space: nowrap;"><span class="edgeLabel"></span></div></foreignObject></g></g><g class="edgeLabel"><g class="label" transform="translate(0, 0)"><foreignObject width="0" height="0"><div xmlns="http://www.w3.org/1999/xhtml" style="display: inline-block; white-space: nowrap;"><span class="edgeLabel"></span></div></foreignObject></g></g><g class="edgeLabel"><g class="label" transform="translate(0, 0)"><foreignObject width="0" height="0"><div xmlns="http://www.w3.org/1999/xhtml" style="display: inline-block; white-space: nowrap;"><span class="edgeLabel"></span></div></foreignObject></g></g><g class="edgeLabel"><g class="label" transform="translate(0, 0)"><foreignObject width="0" height="0"><div xmlns="http://www.w3.org/1999/xhtml" style="display: inline-block; white-space: nowrap;"><span class="edgeLabel"></span></div></foreignObject></g></g><g class="edgeLabel"><g class="label" transform="translate(0, 0)"><foreignObject width="0" height="0"><div xmlns="http://www.w3.org/1999/xhtml" style="display: inline-block; white-space: nowrap;"><span class="edgeLabel"></span></div></foreignObject></g></g><g class="edgeLabel"><g class="label" transform="translate(0, 0)"><foreignObject width="0" height="0"><div xmlns="http://www.w3.org/1999/xhtml" style="display: inline-block; white-space: nowrap;"><span class="edgeLabel"></span></div></foreignObject></g></g><g class="edgeLabel"><g class="label" transform="translate(0, 0)"><foreignObject width="0" height="0"><div xmlns="http://www.w3.org/1999/xhtml" style="display: inline-block; white-space: nowrap;"><span class="edgeLabel"></span></div></foreignObject></g></g><g class="edgeLabel"><g class="label" transform="translate(0, 0)"><foreignObject width="0" height="0"><div xmlns="http://www.w3.org/1999/xhtml" style="display: inline-block; white-space: nowrap;"><span class="edgeLabel"></span></div></foreignObject></g></g><g class="edgeLabel" transform="translate(1569.12109375, 993.1875)"><g class="label" transform="translate(-61.375, -12.796875)"><foreignObject width="122.75" height="25.59375"><div xmlns="http://www.w3.org/1999/xhtml" style="display: inline-block; white-space: nowrap;"><span class="edgeLabel">Managed Identity</span></div></foreignObject></g></g><g class="edgeLabel" transform="translate(1406.2265625, 1114.671875)"><g class="label" transform="translate(-61.375, -12.796875)"><foreignObject width="122.75" height="25.59375"><div xmlns="http://www.w3.org/1999/xhtml" style="display: inline-block; white-space: nowrap;"><span class="edgeLabel">Managed Identity</span></div></foreignObject></g></g><g class="edgeLabel" transform="translate(1263.4765625, 1114.671875)"><g class="label" transform="translate(-61.375, -12.796875)"><foreignObject width="122.75" height="25.59375"><div xmlns="http://www.w3.org/1999/xhtml" style="display: inline-block; white-space: nowrap;"><span class="edgeLabel">Managed Identity</span></div></foreignObject></g></g><g class="edgeLabel" transform="translate(2101.2265625, 993.1875)"><g class="label" transform="translate(-25.34375, -12.796875)"><foreignObject width="50.6875" height="25.59375"><div xmlns="http://www.w3.org/1999/xhtml" style="display: inline-block; white-space: nowrap;"><span class="edgeLabel">AcrPull</span></div></foreignObject></g></g><g class="edgeLabel" transform="translate(1865.2890625, 1114.671875)"><g class="label" transform="translate(-25.34375, -12.796875)"><foreignObject width="50.6875" height="25.59375"><div xmlns="http://www.w3.org/1999/xhtml" style="display: inline-block; white-space: nowrap;"><span class="edgeLabel">AcrPull</span></div></foreignObject></g></g><g class="edgeLabel" transform="translate(1692.43359375, 1114.671875)"><g class="label" transform="translate(-25.34375, -12.796875)"><foreignObject width="50.6875" height="25.59375"><div xmlns="http://www.w3.org/1999/xhtml" style="display: inline-block; white-space: nowrap;"><span class="edgeLabel">AcrPull</span></div></foreignObject></g></g><g class="edgeLabel"><g class="label" transform="translate(0, 0)"><foreignObject width="0" height="0"><div xmlns="http://www.w3.org/1999/xhtml" style="display: inline-block; white-space: nowrap;"><span class="edgeLabel"></span></div></foreignObject></g></g><g class="edgeLabel"><g class="label" transform="translate(0, 0)"><foreignObject width="0" height="0"><div xmlns="http://www.w3.org/1999/xhtml" style="display: inline-block; white-space: nowrap;"><span class="edgeLabel"></span></div></foreignObject></g></g><g class="edgeLabel"><g class="label" transform="translate(0, 0)"><foreignObject width="0" height="0"><div xmlns="http://www.w3.org/1999/xhtml" style="display: inline-block; white-space: nowrap;"><span class="edgeLabel"></span></div></foreignObject></g></g><g class="edgeLabel"><g class="label" transform="translate(0, 0)"><foreignObject width="0" height="0"><div xmlns="http://www.w3.org/1999/xhtml" style="display: inline-block; white-space: nowrap;"><span class="edgeLabel"></span></div></foreignObject></g></g></g><g class="nodes"><g class="node default ext flowchart-label" id="flowchart-DIS-16" data-node="true" data-id="DIS" transform="translate(394.015625, 1236.15625)"><rect class="basic label-container" style="" rx="0" ry="0" x="-58.1953125" y="-20.296875" width="116.390625" height="40.59375"></rect><g class="label" style="" transform="translate(-50.6953125, -12.796875)"><rect></rect><foreignObject width="101.390625" height="25.59375"><div xmlns="http://www.w3.org/1999/xhtml" style="display: inline-block; white-space: nowrap;"><span class="nodeLabel">Disruption API</span></div></foreignObject></g></g><g class="node default ext flowchart-label" id="flowchart-CDPAPI-17" data-node="true" data-id="CDPAPI" transform="translate(541.140625, 1236.15625)"><rect class="basic label-container" style="" rx="0" ry="0" x="-38.9296875" y="-20.296875" width="77.859375" height="40.59375"></rect><g class="label" style="" transform="translate(-31.4296875, -12.796875)"><rect></rect><foreignObject width="62.859375" height="25.59375"><div xmlns="http://www.w3.org/1999/xhtml" style="display: inline-block; white-space: nowrap;"><span class="nodeLabel">CDP API</span></div></foreignObject></g></g><g class="node default ext flowchart-label" id="flowchart-ALN-18" data-node="true" data-id="ALN" transform="translate(721.84375, 1236.15625)"><rect class="basic label-container" style="" rx="0" ry="0" x="-91.7734375" y="-20.296875" width="183.546875" height="40.59375"></rect><g class="label" style="" transform="translate(-84.2734375, -12.796875)"><rect></rect><foreignObject width="168.546875" height="25.59375"><div xmlns="http://www.w3.org/1999/xhtml" style="display: inline-block; white-space: nowrap;"><span class="nodeLabel">Airline Flight + Seat API</span></div></foreignObject></g></g><g class="node default obs flowchart-label" id="flowchart-APPINS-14" data-node="true" data-id="APPINS" transform="translate(1036.046875, 1236.15625)"><rect class="basic label-container" style="" rx="0" ry="0" x="-132.4296875" y="-33.09375" width="264.859375" height="66.1875"></rect><g class="label" style="" transform="translate(-124.9296875, -25.59375)"><rect></rect><foreignObject width="249.859375" height="51.1875"><div xmlns="http://www.w3.org/1999/xhtml" style="display: inline-block; white-space: nowrap;"><span class="nodeLabel">Application Insights<br/>Distributed tracing · custom metrics</span></div></foreignObject></g></g><g class="node default obs flowchart-label" id="flowchart-LAW-15" data-node="true" data-id="LAW" transform="translate(1036.046875, 1402.9375)"><rect class="basic label-container" style="" rx="0" ry="0" x="-96.7421875" y="-33.09375" width="193.484375" height="66.1875"></rect><g class="label" style="" transform="translate(-89.2421875, -25.59375)"><rect></rect><foreignObject width="178.484375" height="51.1875"><div xmlns="http://www.w3.org/1999/xhtml" style="display: inline-block; white-space: nowrap;"><span class="nodeLabel">Log Analytics Workspace<br/>Centralised logs · KQL</span></div></foreignObject></g></g><g class="node default sec flowchart-label" id="flowchart-KV-11" data-node="true" data-id="KV" transform="translate(1406.2265625, 1236.15625)"><rect class="basic label-container" style="" rx="0" ry="0" x="-107.546875" y="-45.890625" width="215.09375" height="91.78125"></rect><g class="label" style="" transform="translate(-100.046875, -38.390625)"><rect></rect><foreignObject width="200.09375" height="76.78125"><div xmlns="http://www.w3.org/1999/xhtml" style="display: inline-block; white-space: nowrap;"><span class="nodeLabel">Azure Key Vault<br/>Secrets · Connection strings<br/>Tenant API keys</span></div></foreignObject></g></g><g class="node default sec flowchart-label" id="flowchart-MI-12" data-node="true" data-id="MI" transform="translate(1641.09375, 1236.15625)"><rect class="basic label-container" style="" rx="0" ry="0" x="-77.3203125" y="-33.09375" width="154.640625" height="66.1875"></rect><g class="label" style="" transform="translate(-69.8203125, -25.59375)"><rect></rect><foreignObject width="139.640625" height="51.1875"><div xmlns="http://www.w3.org/1999/xhtml" style="display: inline-block; white-space: nowrap;"><span class="nodeLabel">Managed Identity<br/>(per Container App)</span></div></foreignObject></g></g><g class="node default sec flowchart-label" id="flowchart-ACR-13" data-node="true" data-id="ACR" transform="translate(1865.2890625, 1236.15625)"><rect class="basic label-container" style="" rx="0" ry="0" x="-96.875" y="-33.09375" width="193.75" height="66.1875"></rect><g class="label" style="" transform="translate(-89.375, -25.59375)"><rect></rect><foreignObject width="178.75" height="51.1875"><div xmlns="http://www.w3.org/1999/xhtml" style="display: inline-block; white-space: nowrap;"><span class="nodeLabel">Azure Container Registry<br/>Private image repository</span></div></foreignObject></g></g><g class="node default data flowchart-label" id="flowchart-COSMOS-10" data-node="true" data-id="COSMOS" transform="translate(2298.8828125, 1236.15625)"><rect class="basic label-container" style="" rx="0" ry="0" x="-122.65625" y="-58.6875" width="245.3125" height="117.375"></rect><g class="label" style="" transform="translate(-115.15625, -51.1875)"><rect></rect><foreignObject width="230.3125" height="102.375"><div xmlns="http://www.w3.org/1999/xhtml" style="display: inline-block; white-space: nowrap;"><span class="nodeLabel">Azure Cosmos DB for MongoDB<br/>DB: flight_operations<br/>tenants · agents · prompts ·<br/>templates · settings · audit_logs</span></div></foreignObject></g></g><g class="node default cache flowchart-label" id="flowchart-REDIS-9" data-node="true" data-id="REDIS" transform="translate(2650.6484375, 1236.15625)"><rect class="basic label-container" style="" rx="0" ry="0" x="-139.109375" y="-45.890625" width="278.21875" height="91.78125"></rect><g class="label" style="" transform="translate(-131.609375, -38.390625)"><rect></rect><foreignObject width="263.21875" height="76.78125"><div xmlns="http://www.w3.org/1999/xhtml" style="display: inline-block; white-space: nowrap;"><span class="nodeLabel">Azure Cache for Redis<br/>Idempotency · Response cache<br/>Seat-map cache · Rate-limit counters</span></div></foreignObject></g></g><g class="node default ai flowchart-label" id="flowchart-AIF-8" data-node="true" data-id="AIF" transform="translate(167.0078125, 993.1875)"><rect class="basic label-container" style="" rx="0" ry="0" x="-132.0078125" y="-58.6875" width="264.015625" height="117.375"></rect><g class="label" style="" transform="translate(-124.5078125, -51.1875)"><rect></rect><foreignObject width="249.015625" height="102.375"><div xmlns="http://www.w3.org/1999/xhtml" style="display: inline-block; white-space: nowrap;"><span class="nodeLabel">Azure AI Foundry<br/>Project: proj-default<br/>Recovery + Messaging Agents<br/>GPT-4.1 · Per-tenant agent registry</span></div></foreignObject></g></g><g class="node default aca flowchart-label" id="flowchart-CA_API-5" data-node="true" data-id="CA_API" transform="translate(1513.18359375, 762.421875)"><rect class="basic label-container" style="" rx="0" ry="0" x="-125.328125" y="-45.890625" width="250.65625" height="91.78125"></rect><g class="label" style="" transform="translate(-117.828125, -38.390625)"><rect></rect><foreignObject width="235.65625" height="76.78125"><div xmlns="http://www.w3.org/1999/xhtml" style="display: inline-block; white-space: nowrap;"><span class="nodeLabel">Container App: api-prod<br/>FastAPI · public ingress via APIM<br/>Azure AI Foundry orchestration</span></div></foreignObject></g></g><g class="node default aca flowchart-label" id="flowchart-CA_ADMIN-6" data-node="true" data-id="CA_ADMIN" transform="translate(1865.2890625, 993.1875)"><rect class="basic label-container" style="" rx="0" ry="0" x="-175.59375" y="-45.890625" width="351.1875" height="91.78125"></rect><g class="label" style="" transform="translate(-168.09375, -38.390625)"><rect></rect><foreignObject width="336.1875" height="76.78125"><div xmlns="http://www.w3.org/1999/xhtml" style="display: inline-block; white-space: nowrap;"><span class="nodeLabel">Container App: api-admin<br/>Admin Panel Backend · public ingress via APIM<br/>Tenant / Agent / Prompt CRUD</span></div></foreignObject></g></g><g class="node default aca flowchart-label" id="flowchart-CA_MCP-7" data-node="true" data-id="CA_MCP" transform="translate(1263.4765625, 993.1875)"><rect class="basic label-container" style="" rx="0" ry="0" x="-149.8046875" y="-45.890625" width="299.609375" height="91.78125"></rect><g class="label" style="" transform="translate(-142.3046875, -38.390625)"><rect></rect><foreignObject width="284.609375" height="76.78125"><div xmlns="http://www.w3.org/1999/xhtml" style="display: inline-block; white-space: nowrap;"><span class="nodeLabel">Container App: mcp-server<br/>Internal ingress only<br/>Data orchestration · external API fan-out</span></div></foreignObject></g></g><g class="node default edge flowchart-label" id="flowchart-SWA-3" data-node="true" data-id="SWA" transform="translate(1454.98828125, 428.859375)"><rect class="basic label-container" style="" rx="0" ry="0" x="-134.0703125" y="-45.890625" width="268.140625" height="91.78125"></rect><g class="label" style="" transform="translate(-126.5703125, -38.390625)"><rect></rect><foreignObject width="253.140625" height="76.78125"><div xmlns="http://www.w3.org/1999/xhtml" style="display: inline-block; white-space: nowrap;"><span class="nodeLabel">Azure Static Web Apps<br/>Admin Panel SPA<br/>Global CDN · Custom domain · TLS</span></div></foreignObject></g></g><g class="node default edge flowchart-label" id="flowchart-APIM-4" data-node="true" data-id="APIM" transform="translate(1682.80859375, 570.640625)"><rect class="basic label-container" style="" rx="0" ry="0" x="-120.8828125" y="-45.890625" width="241.765625" height="91.78125"></rect><g class="label" style="" transform="translate(-113.3828125, -38.390625)"><rect></rect><foreignObject width="226.765625" height="76.78125"><div xmlns="http://www.w3.org/1999/xhtml" style="display: inline-block; white-space: nowrap;"><span class="nodeLabel">Azure API Management<br/>JWT validation · tenant injection<br/>Rate limiting · Subscription keys</span></div></foreignObject></g></g><g class="node default id flowchart-label" id="flowchart-ENTRA-2" data-node="true" data-id="ENTRA" transform="translate(1550.63671875, 237.078125)"><rect class="basic label-container" style="" rx="0" ry="0" x="-106.0546875" y="-45.890625" width="212.109375" height="91.78125"></rect><g class="label" style="" transform="translate(-98.5546875, -38.390625)"><rect></rect><foreignObject width="197.109375" height="76.78125"><div xmlns="http://www.w3.org/1999/xhtml" style="display: inline-block; white-space: nowrap;"><span class="nodeLabel">Microsoft Entra ID<br/>Admin SSO · JWT issuance<br/>federation to airline IdPs</span></div></foreignObject></g></g><g class="node default default flowchart-label" id="flowchart-PAX-0" data-node="true" data-id="PAX" transform="translate(1814.98046875, 58.09375)"><rect class="basic label-container" style="" rx="0" ry="0" x="-137.0390625" y="-33.09375" width="274.078125" height="66.1875"></rect><g class="label" style="" transform="translate(-129.5390625, -25.59375)"><rect></rect><foreignObject width="259.078125" height="51.1875"><div xmlns="http://www.w3.org/1999/xhtml" style="display: inline-block; white-space: nowrap;"><span class="nodeLabel">Airline channels<br/>Web · Mobile · Contact Centre · OTA</span></div></foreignObject></g></g><g class="node default default flowchart-label" id="flowchart-ADM_USER-1" data-node="true" data-id="ADM_USER" transform="translate(1550.63671875, 58.09375)"><rect class="basic label-container" style="" rx="0" ry="0" x="-77.3046875" y="-20.296875" width="154.609375" height="40.59375"></rect><g class="label" style="" transform="translate(-69.8046875, -12.796875)"><rect></rect><foreignObject width="139.609375" height="25.59375"><div xmlns="http://www.w3.org/1999/xhtml" style="display: inline-block; white-space: nowrap;"><span class="nodeLabel">Airline Admin Users</span></div></foreignObject></g></g></g></g></g></svg>